{
	"asset":{
		"generator":"Khronos glTF Blender I/O v4.5.47",
		"version":"2.0"
	},
	"scene":0,
	"scenes":[
		{
			"name":"Scene",
			"nodes":[
				0,
				1,
				2,
				3,
				4,
				5,
				6,
				7
			]
		}
	],
	"nodes":[
		{
			"mesh":0,
			"name":"Curve",
			"rotation":[
				0.7071068286895752,
				0,
				0,
				0.7071068286895752
			],
			"scale":[
				0.11196113377809525,
				0.11196113377809525,
				0.11196113377809525
			],
			"translation":[
				-0.6643378138542175,
				0.09429924935102463,
				-0.01479986310005188
			]
		},
		{
			"mesh":1,
			"name":"Curve.001",
			"rotation":[
				0.7071068286895752,
				0,
				0,
				0.7071068286895752
			],
			"scale":[
				0.11196113377809525,
				0.11196113377809525,
				0.11196113377809525
			],
			"translation":[
				-0.27215296030044556,
				0.11633481830358505,
				-0.01479986310005188
			]
		},
		{
			"mesh":2,
			"name":"Curve.002",
			"rotation":[
				0.7071068286895752,
				0,
				0,
				0.7071068286895752
			],
			"scale":[
				0.11196113377809525,
				0.11196113377809525,
				0.11196113377809525
			],
			"translation":[
				-0.09263621270656586,
				0.09434343129396439,
				-0.01479986310005188
			]
		},
		{
			"mesh":3,
			"name":"Curve.003",
			"rotation":[
				0.7071068286895752,
				0,
				0,
				0.7071068286895752
			],
			"scale":[
				0.11196113377809525,
				0.11196113377809525,
				0.11196113377809525
			],
			"translation":[
				0.12115149199962616,
				0.09457334131002426,
				-0.01479986310005188
			]
		},
		{
			"mesh":4,
			"name":"Curve.004",
			"rotation":[
				0.7071068286895752,
				0,
				0,
				0.7071068286895752
			],
			"scale":[
				0.11196113377809525,
				0.11196113377809525,
				0.11196113377809525
			],
			"translation":[
				0.2769375443458557,
				0.06841301172971725,
				-0.01479986310005188
			]
		},
		{
			"mesh":5,
			"name":"Curve.005",
			"rotation":[
				0.7071068286895752,
				0,
				0,
				0.7071068286895752
			],
			"scale":[
				0.11196113377809525,
				0.11196113377809525,
				0.11196113377809525
			],
			"translation":[
				0.4643869996070862,
				0.09494664520025253,
				-0.01479986310005188
			]
		},
		{
			"mesh":6,
			"name":"Curve.006",
			"rotation":[
				0.7071068286895752,
				0,
				0,
				0.7071068286895752
			],
			"scale":[
				0.11196113377809525,
				0.11196113377809525,
				0.11196113377809525
			],
			"translation":[
				0.6579472422599792,
				0.09434343129396439,
				-0.01479986310005188
			]
		},
		{
			"mesh":7,
			"name":"Curve.007",
			"rotation":[
				0.7071068286895752,
				0,
				0,
				0.7071068286895752
			],
			"scale":[
				0.11196113377809525,
				0.11196113377809525,
				0.11196113377809525
			],
			"translation":[
				-0.49234795570373535,
				0.1030505821108818,
				-0.01479986310005188
			]
		}
	],
	"materials":[
		{
			"doubleSided":true,
			"name":"SVGMat.002",
			"pbrMetallicRoughness":{
				"baseColorFactor":[
					1,
					0,
					0.0013736749533563852,
					1
				],
				"roughnessFactor":0.4000000059604645
			}
		},
		{
			"doubleSided":true,
			"name":"Material.003",
			"pbrMetallicRoughness":{
				"baseColorFactor":[
					0.794112503528595,
					0.8000000715255737,
					0.7697303891181946,
					1
				],
				"roughnessFactor":0.4000000059604645
			}
		},
		{
			"doubleSided":true,
			"name":"Material.004",
			"pbrMetallicRoughness":{
				"baseColorFactor":[
					0.800000011920929,
					0.800000011920929,
					0.800000011920929,
					1
				],
				"roughnessFactor":0.4000000059604645
			}
		},
		{
			"doubleSided":true,
			"name":"Material.006",
			"pbrMetallicRoughness":{
				"baseColorFactor":[
					0.800000011920929,
					0.800000011920929,
					0.800000011920929,
					1
				],
				"roughnessFactor":0.4000000059604645
			}
		},
		{
			"doubleSided":true,
			"name":"Material.007",
			"pbrMetallicRoughness":{
				"baseColorFactor":[
					0.800000011920929,
					0.800000011920929,
					0.800000011920929,
					1
				],
				"roughnessFactor":0.4000000059604645
			}
		},
		{
			"doubleSided":true,
			"name":"Material.008",
			"pbrMetallicRoughness":{
				"baseColorFactor":[
					0.800000011920929,
					0.800000011920929,
					0.800000011920929,
					1
				],
				"roughnessFactor":0.4000000059604645
			}
		},
		{
			"doubleSided":true,
			"name":"Material.009",
			"pbrMetallicRoughness":{
				"baseColorFactor":[
					0.800000011920929,
					0.800000011920929,
					0.800000011920929,
					1
				],
				"roughnessFactor":0.4000000059604645
			}
		},
		{
			"doubleSided":true,
			"name":"Material.013",
			"pbrMetallicRoughness":{
				"baseColorFactor":[
					0.800000011920929,
					0.800000011920929,
					0.800000011920929,
					1
				],
				"metallicFactor":0,
				"roughnessFactor":0.5
			}
		},
		{
			"alphaMode":"BLEND",
			"doubleSided":true,
			"name":"Material.012",
			"pbrMetallicRoughness":{
				"baseColorTexture":{
					"index":0
				},
				"metallicFactor":0,
				"roughnessFactor":0.5
			}
		}
	],
	"meshes":[
		{
			"name":"Curve.001",
			"primitives":[
				{
					"attributes":{
						"POSITION":0,
						"NORMAL":1,
						"TEXCOORD_0":2
					},
					"indices":3,
					"material":0
				},
				{
					"attributes":{
						"POSITION":4,
						"NORMAL":5,
						"TEXCOORD_0":6
					},
					"indices":7,
					"material":1
				}
			]
		},
		{
			"name":"Curve.002",
			"primitives":[
				{
					"attributes":{
						"POSITION":8,
						"NORMAL":9,
						"TEXCOORD_0":10
					},
					"indices":11,
					"material":0
				},
				{
					"attributes":{
						"POSITION":12,
						"NORMAL":13,
						"TEXCOORD_0":14
					},
					"indices":15,
					"material":2
				}
			]
		},
		{
			"name":"Curve.003",
			"primitives":[
				{
					"attributes":{
						"POSITION":16,
						"NORMAL":17,
						"TEXCOORD_0":18
					},
					"indices":19,
					"material":0
				},
				{
					"attributes":{
						"POSITION":20,
						"NORMAL":21,
						"TEXCOORD_0":22
					},
					"indices":23,
					"material":3
				}
			]
		},
		{
			"name":"Curve.004",
			"primitives":[
				{
					"attributes":{
						"POSITION":24,
						"NORMAL":25,
						"TEXCOORD_0":26
					},
					"indices":27,
					"material":0
				},
				{
					"attributes":{
						"POSITION":28,
						"NORMAL":29,
						"TEXCOORD_0":30
					},
					"indices":31,
					"material":3
				}
			]
		},
		{
			"name":"Curve.005",
			"primitives":[
				{
					"attributes":{
						"POSITION":32,
						"NORMAL":33,
						"TEXCOORD_0":34
					},
					"indices":35,
					"material":0
				},
				{
					"attributes":{
						"POSITION":36,
						"NORMAL":37,
						"TEXCOORD_0":38
					},
					"indices":39,
					"material":4
				}
			]
		},
		{
			"name":"Curve.006",
			"primitives":[
				{
					"attributes":{
						"POSITION":40,
						"NORMAL":41,
						"TEXCOORD_0":42
					},
					"indices":43,
					"material":0
				},
				{
					"attributes":{
						"POSITION":44,
						"NORMAL":45,
						"TEXCOORD_0":46
					},
					"indices":47,
					"material":5
				}
			]
		},
		{
			"name":"Curve.007",
			"primitives":[
				{
					"attributes":{
						"POSITION":48,
						"NORMAL":49,
						"TEXCOORD_0":50
					},
					"indices":51,
					"material":0
				},
				{
					"attributes":{
						"POSITION":52,
						"NORMAL":53,
						"TEXCOORD_0":54
					},
					"indices":55,
					"material":6
				}
			]
		},
		{
			"name":"Curve.008",
			"primitives":[
				{
					"attributes":{
						"POSITION":56,
						"NORMAL":57,
						"TEXCOORD_0":58
					},
					"indices":59,
					"material":0
				},
				{
					"attributes":{
						"POSITION":60,
						"NORMAL":61,
						"TEXCOORD_0":62
					},
					"indices":63,
					"material":7
				},
				{
					"attributes":{
						"POSITION":64,
						"NORMAL":65,
						"TEXCOORD_0":66
					},
					"indices":67,
					"material":8
				}
			]
		}
	],
	"textures":[
		{
			"sampler":0,
			"source":0
		}
	],
	"images":[
		{
			"mimeType":"image/png",
			"name":"Flag",
			"uri":"ASSETS/Flag.png"
		}
	],
	"accessors":[
		{
			"bufferView":0,
			"componentType":5126,
			"count":14,
			"max":[
				0.2132604867219925,
				0.2583357095718384,
				0.7653888463973999
			],
			"min":[
				-0.21326051652431488,
				-0.2583357095718384,
				-0.7653887271881104
			],
			"type":"VEC3"
		},
		{
			"bufferView":1,
			"componentType":5126,
			"count":14,
			"type":"VEC3"
		},
		{
			"bufferView":2,
			"componentType":5126,
			"count":14,
			"type":"VEC2"
		},
		{
			"bufferView":3,
			"componentType":5123,
			"count":30,
			"type":"SCALAR"
		},
		{
			"bufferView":4,
			"componentType":5126,
			"count":4,
			"max":[
				0.2132604867219925,
				0.2583357095718384,
				0.7653888463973999
			],
			"min":[
				-0.21326051652431488,
				0.2583357095718384,
				-0.7653887271881104
			],
			"type":"VEC3"
		},
		{
			"bufferView":5,
			"componentType":5126,
			"count":4,
			"type":"VEC3"
		},
		{
			"bufferView":6,
			"componentType":5126,
			"count":4,
			"type":"VEC2"
		},
		{
			"bufferView":7,
			"componentType":5123,
			"count":6,
			"type":"SCALAR"
		},
		{
			"bufferView":8,
			"componentType":5126,
			"count":34,
			"max":[
				0.6714968681335449,
				0.2583357095718384,
				0.9622029662132263
			],
			"min":[
				-0.671497106552124,
				-0.2583357095718384,
				-0.5685746073722839
			],
			"type":"VEC3"
		},
		{
			"bufferView":9,
			"componentType":5126,
			"count":34,
			"type":"VEC3"
		},
		{
			"bufferView":10,
			"componentType":5126,
			"count":34,
			"type":"VEC2"
		},
		{
			"bufferView":11,
			"componentType":5123,
			"count":72,
			"type":"SCALAR"
		},
		{
			"bufferView":12,
			"componentType":5126,
			"count":8,
			"max":[
				0.6714968681335449,
				0.2583357095718384,
				0.9622029662132263
			],
			"min":[
				-0.671497106552124,
				0.2583357095718384,
				-0.5685746073722839
			],
			"type":"VEC3"
		},
		{
			"bufferView":13,
			"componentType":5126,
			"count":8,
			"type":"VEC3"
		},
		{
			"bufferView":14,
			"componentType":5126,
			"count":8,
			"type":"VEC2"
		},
		{
			"bufferView":15,
			"componentType":5123,
			"count":12,
			"type":"SCALAR"
		},
		{
			"bufferView":16,
			"componentType":5126,
			"count":370,
			"max":[
				0.7851324081420898,
				0.2583357095718384,
				0.7963988184928894
			],
			"min":[
				-0.8640813827514648,
				-0.2583357095718384,
				-0.7956098914146423
			],
			"type":"VEC3"
		},
		{
			"bufferView":17,
			"componentType":5126,
			"count":370,
			"type":"VEC3"
		},
		{
			"bufferView":18,
			"componentType":5126,
			"count":370,
			"type":"VEC2"
		},
		{
			"bufferView":19,
			"componentType":5123,
			"count":1098,
			"type":"SCALAR"
		},
		{
			"bufferView":20,
			"componentType":5126,
			"count":122,
			"max":[
				0.7851324081420898,
				0.2583357095718384,
				0.7963988184928894
			],
			"min":[
				-0.8640813827514648,
				0.2583357095718384,
				-0.7956098914146423
			],
			"type":"VEC3"
		},
		{
			"bufferView":21,
			"componentType":5126,
			"count":122,
			"type":"VEC3"
		},
		{
			"bufferView":22,
			"componentType":5126,
			"count":122,
			"type":"VEC2"
		},
		{
			"bufferView":23,
			"componentType":5123,
			"count":366,
			"type":"SCALAR"
		},
		{
			"bufferView":24,
			"componentType":5126,
			"count":694,
			"max":[
				0.4658088684082031,
				0.2583357095718384,
				0.7678369283676147
			],
			"min":[
				-0.9034323692321777,
				-0.2583357095718384,
				-0.7629406452178955
			],
			"type":"VEC3"
		},
		{
			"bufferView":25,
			"componentType":5126,
			"count":694,
			"type":"VEC3"
		},
		{
			"bufferView":26,
			"componentType":5126,
			"count":694,
			"type":"VEC2"
		},
		{
			"bufferView":27,
			"componentType":5123,
			"count":2028,
			"type":"SCALAR"
		},
		{
			"bufferView":28,
			"componentType":5126,
			"count":206,
			"max":[
				0.4658088684082031,
				0.2583357095718384,
				0.7678369283676147
			],
			"min":[
				-0.9034323692321777,
				0.2583357095718384,
				-0.7629406452178955
			],
			"type":"VEC3"
		},
		{
			"bufferView":29,
			"componentType":5126,
			"count":206,
			"type":"VEC3"
		},
		{
			"bufferView":30,
			"componentType":5126,
			"count":206,
			"type":"VEC2"
		},
		{
			"bufferView":31,
			"componentType":5123,
			"count":624,
			"type":"SCALAR"
		},
		{
			"bufferView":32,
			"componentType":5126,
			"count":37,
			"max":[
				0.8592052459716797,
				0.2583357095718384,
				0.5341816544532776
			],
			"min":[
				-0.8534398078918457,
				-0.2583357095718384,
				-1.0075299739837646
			],
			"type":"VEC3"
		},
		{
			"bufferView":33,
			"componentType":5126,
			"count":37,
			"type":"VEC3"
		},
		{
			"bufferView":34,
			"componentType":5126,
			"count":37,
			"type":"VEC2"
		},
		{
			"bufferView":35,
			"componentType":5123,
			"count":99,
			"type":"SCALAR"
		},
		{
			"bufferView":36,
			"componentType":5126,
			"count":11,
			"max":[
				0.8592052459716797,
				0.2583357095718384,
				0.5341816544532776
			],
			"min":[
				-0.8534398078918457,
				0.2583357095718384,
				-1.0075299739837646
			],
			"type":"VEC3"
		},
		{
			"bufferView":37,
			"componentType":5126,
			"count":11,
			"type":"VEC3"
		},
		{
			"bufferView":38,
			"componentType":5126,
			"count":11,
			"type":"VEC2"
		},
		{
			"bufferView":39,
			"componentType":5123,
			"count":33,
			"type":"SCALAR"
		},
		{
			"bufferView":40,
			"componentType":5126,
			"count":416,
			"max":[
				0.6810007095336914,
				0.2583357095718384,
				0.8017868399620056
			],
			"min":[
				-0.8172903060913086,
				-0.2583357095718384,
				-0.7902218699455261
			],
			"type":"VEC3"
		},
		{
			"bufferView":41,
			"componentType":5126,
			"count":416,
			"type":"VEC3"
		},
		{
			"bufferView":42,
			"componentType":5126,
			"count":416,
			"type":"VEC2"
		},
		{
			"bufferView":43,
			"componentType":5123,
			"count":1230,
			"type":"SCALAR"
		},
		{
			"bufferView":44,
			"componentType":5126,
			"count":136,
			"max":[
				0.6810007095336914,
				0.2583357095718384,
				0.799687385559082
			],
			"min":[
				-0.8172903060913086,
				0.2583357095718384,
				-0.7902218699455261
			],
			"type":"VEC3"
		},
		{
			"bufferView":45,
			"componentType":5126,
			"count":136,
			"type":"VEC3"
		},
		{
			"bufferView":46,
			"componentType":5126,
			"count":136,
			"type":"VEC2"
		},
		{
			"bufferView":47,
			"componentType":5123,
			"count":402,
			"type":"SCALAR"
		},
		{
			"bufferView":48,
			"componentType":5126,
			"count":373,
			"max":[
				0.785130500793457,
				0.2583357095718384,
				0.7963988184928894
			],
			"min":[
				-0.8640842437744141,
				-0.2583357095718384,
				-0.7956098914146423
			],
			"type":"VEC3"
		},
		{
			"bufferView":49,
			"componentType":5126,
			"count":373,
			"type":"VEC3"
		},
		{
			"bufferView":50,
			"componentType":5126,
			"count":373,
			"type":"VEC2"
		},
		{
			"bufferView":51,
			"componentType":5123,
			"count":1101,
			"type":"SCALAR"
		},
		{
			"bufferView":52,
			"componentType":5126,
			"count":122,
			"max":[
				0.785130500793457,
				0.2583357095718384,
				0.7963988184928894
			],
			"min":[
				-0.8640842437744141,
				0.2583357095718384,
				-0.7956098914146423
			],
			"type":"VEC3"
		},
		{
			"bufferView":53,
			"componentType":5126,
			"count":122,
			"type":"VEC3"
		},
		{
			"bufferView":54,
			"componentType":5126,
			"count":122,
			"type":"VEC2"
		},
		{
			"bufferView":55,
			"componentType":5123,
			"count":363,
			"type":"SCALAR"
		},
		{
			"bufferView":56,
			"componentType":5126,
			"count":411,
			"max":[
				0.9735177755355835,
				0.2583357095718384,
				0.8461771011352539
			],
			"min":[
				-0.8424742221832275,
				-0.2583357095718384,
				-0.7368656992912292
			],
			"type":"VEC3"
		},
		{
			"bufferView":57,
			"componentType":5126,
			"count":411,
			"type":"VEC3"
		},
		{
			"bufferView":58,
			"componentType":5126,
			"count":411,
			"type":"VEC2"
		},
		{
			"bufferView":59,
			"componentType":5123,
			"count":1206,
			"type":"SCALAR"
		},
		{
			"bufferView":60,
			"componentType":5126,
			"count":32,
			"max":[
				0.0909796953201294,
				0.2583357095718384,
				0.846161961555481
			],
			"min":[
				-0.49517524242401123,
				0.2583357095718384,
				-0.7357776761054993
			],
			"type":"VEC3"
		},
		{
			"bufferView":61,
			"componentType":5126,
			"count":32,
			"type":"VEC3"
		},
		{
			"bufferView":62,
			"componentType":5126,
			"count":32,
			"type":"VEC2"
		},
		{
			"bufferView":63,
			"componentType":5123,
			"count":51,
			"type":"SCALAR"
		},
		{
			"bufferView":64,
			"componentType":5126,
			"count":114,
			"max":[
				0.9735177755355835,
				0.2583357095718384,
				0.8439167141914368
			],
			"min":[
				-0.8424742221832275,
				0.2583357095718384,
				-0.7368656992912292
			],
			"type":"VEC3"
		},
		{
			"bufferView":65,
			"componentType":5126,
			"count":114,
			"type":"VEC3"
		},
		{
			"bufferView":66,
			"componentType":5126,
			"count":114,
			"type":"VEC2"
		},
		{
			"bufferView":67,
			"componentType":5123,
			"count":315,
			"type":"SCALAR"
		}
	],
	"bufferViews":[
		{
			"buffer":0,
			"byteLength":168,
			"byteOffset":0,
			"target":34962
		},
		{
			"buffer":0,
			"byteLength":168,
			"byteOffset":168,
			"target":34962
		},
		{
			"buffer":0,
			"byteLength":112,
			"byteOffset":336,
			"target":34962
		},
		{
			"buffer":0,
			"byteLength":60,
			"byteOffset":448,
			"target":34963
		},
		{
			"buffer":0,
			"byteLength":48,
			"byteOffset":508,
			"target":34962
		},
		{
			"buffer":0,
			"byteLength":48,
			"byteOffset":556,
			"target":34962
		},
		{
			"buffer":0,
			"byteLength":32,
			"byteOffset":604,
			"target":34962
		},
		{
			"buffer":0,
			"byteLength":12,
			"byteOffset":636,
			"target":34963
		},
		{
			"buffer":0,
			"byteLength":408,
			"byteOffset":648,
			"target":34962
		},
		{
			"buffer":0,
			"byteLength":408,
			"byteOffset":1056,
			"target":34962
		},
		{
			"buffer":0,
			"byteLength":272,
			"byteOffset":1464,
			"target":34962
		},
		{
			"buffer":0,
			"byteLength":144,
			"byteOffset":1736,
			"target":34963
		},
		{
			"buffer":0,
			"byteLength":96,
			"byteOffset":1880,
			"target":34962
		},
		{
			"buffer":0,
			"byteLength":96,
			"byteOffset":1976,
			"target":34962
		},
		{
			"buffer":0,
			"byteLength":64,
			"byteOffset":2072,
			"target":34962
		},
		{
			"buffer":0,
			"byteLength":24,
			"byteOffset":2136,
			"target":34963
		},
		{
			"buffer":0,
			"byteLength":4440,
			"byteOffset":2160,
			"target":34962
		},
		{
			"buffer":0,
			"byteLength":4440,
			"byteOffset":6600,
			"target":34962
		},
		{
			"buffer":0,
			"byteLength":2960,
			"byteOffset":11040,
			"target":34962
		},
		{
			"buffer":0,
			"byteLength":2196,
			"byteOffset":14000,
			"target":34963
		},
		{
			"buffer":0,
			"byteLength":1464,
			"byteOffset":16196,
			"target":34962
		},
		{
			"buffer":0,
			"byteLength":1464,
			"byteOffset":17660,
			"target":34962
		},
		{
			"buffer":0,
			"byteLength":976,
			"byteOffset":19124,
			"target":34962
		},
		{
			"buffer":0,
			"byteLength":732,
			"byteOffset":20100,
			"target":34963
		},
		{
			"buffer":0,
			"byteLength":8328,
			"byteOffset":20832,
			"target":34962
		},
		{
			"buffer":0,
			"byteLength":8328,
			"byteOffset":29160,
			"target":34962
		},
		{
			"buffer":0,
			"byteLength":5552,
			"byteOffset":37488,
			"target":34962
		},
		{
			"buffer":0,
			"byteLength":4056,
			"byteOffset":43040,
			"target":34963
		},
		{
			"buffer":0,
			"byteLength":2472,
			"byteOffset":47096,
			"target":34962
		},
		{
			"buffer":0,
			"byteLength":2472,
			"byteOffset":49568,
			"target":34962
		},
		{
			"buffer":0,
			"byteLength":1648,
			"byteOffset":52040,
			"target":34962
		},
		{
			"buffer":0,
			"byteLength":1248,
			"byteOffset":53688,
			"target":34963
		},
		{
			"buffer":0,
			"byteLength":444,
			"byteOffset":54936,
			"target":34962
		},
		{
			"buffer":0,
			"byteLength":444,
			"byteOffset":55380,
			"target":34962
		},
		{
			"buffer":0,
			"byteLength":296,
			"byteOffset":55824,
			"target":34962
		},
		{
			"buffer":0,
			"byteLength":198,
			"byteOffset":56120,
			"target":34963
		},
		{
			"buffer":0,
			"byteLength":132,
			"byteOffset":56320,
			"target":34962
		},
		{
			"buffer":0,
			"byteLength":132,
			"byteOffset":56452,
			"target":34962
		},
		{
			"buffer":0,
			"byteLength":88,
			"byteOffset":56584,
			"target":34962
		},
		{
			"buffer":0,
			"byteLength":66,
			"byteOffset":56672,
			"target":34963
		},
		{
			"buffer":0,
			"byteLength":4992,
			"byteOffset":56740,
			"target":34962
		},
		{
			"buffer":0,
			"byteLength":4992,
			"byteOffset":61732,
			"target":34962
		},
		{
			"buffer":0,
			"byteLength":3328,
			"byteOffset":66724,
			"target":34962
		},
		{
			"buffer":0,
			"byteLength":2460,
			"byteOffset":70052,
			"target":34963
		},
		{
			"buffer":0,
			"byteLength":1632,
			"byteOffset":72512,
			"target":34962
		},
		{
			"buffer":0,
			"byteLength":1632,
			"byteOffset":74144,
			"target":34962
		},
		{
			"buffer":0,
			"byteLength":1088,
			"byteOffset":75776,
			"target":34962
		},
		{
			"buffer":0,
			"byteLength":804,
			"byteOffset":76864,
			"target":34963
		},
		{
			"buffer":0,
			"byteLength":4476,
			"byteOffset":77668,
			"target":34962
		},
		{
			"buffer":0,
			"byteLength":4476,
			"byteOffset":82144,
			"target":34962
		},
		{
			"buffer":0,
			"byteLength":2984,
			"byteOffset":86620,
			"target":34962
		},
		{
			"buffer":0,
			"byteLength":2202,
			"byteOffset":89604,
			"target":34963
		},
		{
			"buffer":0,
			"byteLength":1464,
			"byteOffset":91808,
			"target":34962
		},
		{
			"buffer":0,
			"byteLength":1464,
			"byteOffset":93272,
			"target":34962
		},
		{
			"buffer":0,
			"byteLength":976,
			"byteOffset":94736,
			"target":34962
		},
		{
			"buffer":0,
			"byteLength":726,
			"byteOffset":95712,
			"target":34963
		},
		{
			"buffer":0,
			"byteLength":4932,
			"byteOffset":96440,
			"target":34962
		},
		{
			"buffer":0,
			"byteLength":4932,
			"byteOffset":101372,
			"target":34962
		},
		{
			"buffer":0,
			"byteLength":3288,
			"byteOffset":106304,
			"target":34962
		},
		{
			"buffer":0,
			"byteLength":2412,
			"byteOffset":109592,
			"target":34963
		},
		{
			"buffer":0,
			"byteLength":384,
			"byteOffset":112004,
			"target":34962
		},
		{
			"buffer":0,
			"byteLength":384,
			"byteOffset":112388,
			"target":34962
		},
		{
			"buffer":0,
			"byteLength":256,
			"byteOffset":112772,
			"target":34962
		},
		{
			"buffer":0,
			"byteLength":102,
			"byteOffset":113028,
			"target":34963
		},
		{
			"buffer":0,
			"byteLength":1368,
			"byteOffset":113132,
			"target":34962
		},
		{
			"buffer":0,
			"byteLength":1368,
			"byteOffset":114500,
			"target":34962
		},
		{
			"buffer":0,
			"byteLength":912,
			"byteOffset":115868,
			"target":34962
		},
		{
			"buffer":0,
			"byteLength":630,
			"byteOffset":116780,
			"target":34963
		}
	],
	"samplers":[
		{
			"magFilter":9729,
			"minFilter":9987,
			"wrapS":33071,
			"wrapT":33071
		}
	],
	"buffers":[
		{
			"byteLength":117412,
			"uri":"ILOVETOBAGO.bin"
		}
	]
}
